<mxfile modified="2022-05-02T22:17:55.567Z" host="app.diagrams.net" agent="5.0 (Windows NT 10.0; Win64; x64) AppleWebKit/537.36 (KHTML, like Gecko) Chrome/100.0.4896.127 Safari/537.36 Edg/100.0.1185.50" etag="lm4WjAdTGBgmBx4eBSVh" compressed="false" version="17.5.0" type="google">
  <diagram name="Security/Accountability/Operations" id="kyrvCUX1YkvgrKpaTWrQ">
    <mxGraphModel grid="1" page="1" gridSize="10" guides="1" tooltips="1" connect="1" arrows="1" fold="1" pageScale="1" pageWidth="827" pageHeight="1169" math="0" shadow="0">
      <root>
        <mxCell id="yz_Uevt21Vtl2zDWMF5E-0" />
        <mxCell id="yz_Uevt21Vtl2zDWMF5E-1" parent="yz_Uevt21Vtl2zDWMF5E-0" />
        <mxCell id="yz_Uevt21Vtl2zDWMF5E-2" value="&lt;font style=&quot;font-size: 12px&quot;&gt;&lt;span style=&quot;font-size: 12px&quot;&gt;Diagram: Base System Logical Module -&amp;nbsp;&lt;/span&gt;Security - Multiple Operations per each Session&lt;/font&gt;" style="text;strokeColor=none;fillColor=none;html=1;fontSize=24;fontStyle=2;verticalAlign=middle;align=left;shadow=0;glass=0;comic=0;opacity=30;fontColor=#808080;" vertex="1" parent="yz_Uevt21Vtl2zDWMF5E-1">
          <mxGeometry x="120" y="700" width="520" height="20" as="geometry" />
        </mxCell>
        <mxCell id="yz_Uevt21Vtl2zDWMF5E-22" style="edgeStyle=none;rounded=0;orthogonalLoop=1;jettySize=auto;html=1;entryX=0;entryY=0.5;entryDx=0;entryDy=0;endArrow=none;endFill=0;startArrow=diamondThin;startFill=0;exitX=1;exitY=0.5;exitDx=0;exitDy=0;" edge="1" parent="yz_Uevt21Vtl2zDWMF5E-1" source="yz_Uevt21Vtl2zDWMF5E-17" target="yz_Uevt21Vtl2zDWMF5E-20">
          <mxGeometry relative="1" as="geometry" />
        </mxCell>
        <mxCell id="yz_Uevt21Vtl2zDWMF5E-37" style="edgeStyle=none;rounded=0;orthogonalLoop=1;jettySize=auto;html=1;entryX=0;entryY=0.5;entryDx=0;entryDy=0;startArrow=diamondThin;startFill=0;endArrow=none;endFill=0;" edge="1" parent="yz_Uevt21Vtl2zDWMF5E-1" target="yz_Uevt21Vtl2zDWMF5E-25">
          <mxGeometry relative="1" as="geometry">
            <mxPoint x="200" y="370" as="sourcePoint" />
          </mxGeometry>
        </mxCell>
        <mxCell id="yz_Uevt21Vtl2zDWMF5E-17" value="Session" style="rounded=0;whiteSpace=wrap;html=1;strokeColor=#000000;strokeWidth=1;fillColor=none;" vertex="1" parent="yz_Uevt21Vtl2zDWMF5E-1">
          <mxGeometry x="120" y="360" width="80" height="20" as="geometry" />
        </mxCell>
        <mxCell id="yz_Uevt21Vtl2zDWMF5E-18" value="Operation" style="rounded=0;whiteSpace=wrap;html=1;strokeColor=#000000;strokeWidth=1;fillColor=none;" vertex="1" parent="yz_Uevt21Vtl2zDWMF5E-1">
          <mxGeometry x="250" y="390" width="80" height="20" as="geometry" />
        </mxCell>
        <mxCell id="yz_Uevt21Vtl2zDWMF5E-20" value="Operation" style="rounded=0;whiteSpace=wrap;html=1;strokeColor=#000000;strokeWidth=1;fillColor=none;" vertex="1" parent="yz_Uevt21Vtl2zDWMF5E-1">
          <mxGeometry x="250" y="330" width="80" height="20" as="geometry" />
        </mxCell>
        <mxCell id="yz_Uevt21Vtl2zDWMF5E-21" value="Operation" style="rounded=0;whiteSpace=wrap;html=1;strokeColor=#000000;strokeWidth=1;fillColor=none;" vertex="1" parent="yz_Uevt21Vtl2zDWMF5E-1">
          <mxGeometry x="250" y="360" width="80" height="20" as="geometry" />
        </mxCell>
        <mxCell id="yz_Uevt21Vtl2zDWMF5E-23" style="edgeStyle=none;rounded=0;orthogonalLoop=1;jettySize=auto;html=1;entryX=0;entryY=0.5;entryDx=0;entryDy=0;endArrow=none;endFill=0;startArrow=diamondThin;startFill=0;exitX=1;exitY=0.5;exitDx=0;exitDy=0;" edge="1" parent="yz_Uevt21Vtl2zDWMF5E-1" source="yz_Uevt21Vtl2zDWMF5E-17" target="yz_Uevt21Vtl2zDWMF5E-21">
          <mxGeometry relative="1" as="geometry">
            <mxPoint x="210" y="380" as="sourcePoint" />
            <mxPoint x="260" y="350" as="targetPoint" />
          </mxGeometry>
        </mxCell>
        <mxCell id="yz_Uevt21Vtl2zDWMF5E-24" style="edgeStyle=none;rounded=0;orthogonalLoop=1;jettySize=auto;html=1;entryX=0;entryY=0.5;entryDx=0;entryDy=0;endArrow=none;endFill=0;startArrow=diamondThin;startFill=0;" edge="1" parent="yz_Uevt21Vtl2zDWMF5E-1" target="yz_Uevt21Vtl2zDWMF5E-18">
          <mxGeometry relative="1" as="geometry">
            <mxPoint x="200" y="370" as="sourcePoint" />
            <mxPoint x="260" y="380" as="targetPoint" />
          </mxGeometry>
        </mxCell>
        <mxCell id="yz_Uevt21Vtl2zDWMF5E-25" value="Operation" style="rounded=0;whiteSpace=wrap;html=1;strokeColor=#000000;strokeWidth=1;fillColor=none;" vertex="1" parent="yz_Uevt21Vtl2zDWMF5E-1">
          <mxGeometry x="250" y="450" width="80" height="20" as="geometry" />
        </mxCell>
        <mxCell id="yz_Uevt21Vtl2zDWMF5E-26" value="" style="endArrow=none;dashed=1;html=1;dashPattern=1 3;strokeWidth=2;entryX=0.5;entryY=1;entryDx=0;entryDy=0;exitX=0.5;exitY=0;exitDx=0;exitDy=0;" edge="1" parent="yz_Uevt21Vtl2zDWMF5E-1" source="yz_Uevt21Vtl2zDWMF5E-25" target="yz_Uevt21Vtl2zDWMF5E-18">
          <mxGeometry width="50" height="50" relative="1" as="geometry">
            <mxPoint x="220" y="490" as="sourcePoint" />
            <mxPoint x="270" y="440" as="targetPoint" />
          </mxGeometry>
        </mxCell>
        <mxCell id="yz_Uevt21Vtl2zDWMF5E-33" style="edgeStyle=none;rounded=0;orthogonalLoop=1;jettySize=auto;html=1;entryX=0;entryY=0.5;entryDx=0;entryDy=0;startArrow=diamondThin;startFill=0;endArrow=none;endFill=0;exitX=1;exitY=0.5;exitDx=0;exitDy=0;" edge="1" parent="yz_Uevt21Vtl2zDWMF5E-1" source="yz_Uevt21Vtl2zDWMF5E-27" target="yz_Uevt21Vtl2zDWMF5E-28">
          <mxGeometry relative="1" as="geometry" />
        </mxCell>
        <mxCell id="yz_Uevt21Vtl2zDWMF5E-34" style="edgeStyle=none;rounded=0;orthogonalLoop=1;jettySize=auto;html=1;entryX=0;entryY=0.5;entryDx=0;entryDy=0;startArrow=diamondThin;startFill=0;endArrow=none;endFill=0;" edge="1" parent="yz_Uevt21Vtl2zDWMF5E-1" source="yz_Uevt21Vtl2zDWMF5E-27" target="yz_Uevt21Vtl2zDWMF5E-29">
          <mxGeometry relative="1" as="geometry" />
        </mxCell>
        <mxCell id="yz_Uevt21Vtl2zDWMF5E-36" style="edgeStyle=none;rounded=0;orthogonalLoop=1;jettySize=auto;html=1;entryX=0;entryY=0.5;entryDx=0;entryDy=0;startArrow=diamondThin;startFill=0;endArrow=none;endFill=0;exitX=1;exitY=0.5;exitDx=0;exitDy=0;" edge="1" parent="yz_Uevt21Vtl2zDWMF5E-1" source="yz_Uevt21Vtl2zDWMF5E-27" target="yz_Uevt21Vtl2zDWMF5E-35">
          <mxGeometry relative="1" as="geometry" />
        </mxCell>
        <mxCell id="yz_Uevt21Vtl2zDWMF5E-27" value="Session" style="rounded=0;whiteSpace=wrap;html=1;strokeColor=#000000;strokeWidth=1;fillColor=none;" vertex="1" parent="yz_Uevt21Vtl2zDWMF5E-1">
          <mxGeometry x="120" y="580" width="80" height="20" as="geometry" />
        </mxCell>
        <mxCell id="yz_Uevt21Vtl2zDWMF5E-28" value="Operation" style="rounded=0;whiteSpace=wrap;html=1;strokeColor=#000000;strokeWidth=1;fillColor=none;" vertex="1" parent="yz_Uevt21Vtl2zDWMF5E-1">
          <mxGeometry x="250" y="550" width="80" height="20" as="geometry" />
        </mxCell>
        <mxCell id="yz_Uevt21Vtl2zDWMF5E-29" value="Operation" style="rounded=0;whiteSpace=wrap;html=1;strokeColor=#000000;strokeWidth=1;fillColor=none;" vertex="1" parent="yz_Uevt21Vtl2zDWMF5E-1">
          <mxGeometry x="250" y="580" width="80" height="20" as="geometry" />
        </mxCell>
        <mxCell id="yz_Uevt21Vtl2zDWMF5E-31" value="" style="endArrow=none;dashed=1;html=1;dashPattern=1 3;strokeWidth=2;entryX=0.5;entryY=1;entryDx=0;entryDy=0;" edge="1" parent="yz_Uevt21Vtl2zDWMF5E-1">
          <mxGeometry width="50" height="50" relative="1" as="geometry">
            <mxPoint x="290" y="660" as="sourcePoint" />
            <mxPoint x="290" y="630" as="targetPoint" />
          </mxGeometry>
        </mxCell>
        <mxCell id="yz_Uevt21Vtl2zDWMF5E-32" value="session time out requires return to IdP&lt;br&gt;(does not require re-entry of Pwd&lt;br&gt;so can reuse the extended IdP session&lt;br&gt;to issue an application session token)" style="endArrow=none;html=1;" edge="1" parent="yz_Uevt21Vtl2zDWMF5E-1">
          <mxGeometry width="50" height="50" relative="1" as="geometry">
            <mxPoint x="120" y="500" as="sourcePoint" />
            <mxPoint x="330" y="500" as="targetPoint" />
          </mxGeometry>
        </mxCell>
        <mxCell id="yz_Uevt21Vtl2zDWMF5E-35" value="Operation" style="rounded=0;whiteSpace=wrap;html=1;strokeColor=#000000;strokeWidth=1;fillColor=none;" vertex="1" parent="yz_Uevt21Vtl2zDWMF5E-1">
          <mxGeometry x="250" y="610" width="80" height="20" as="geometry" />
        </mxCell>
        <mxCell id="yz_Uevt21Vtl2zDWMF5E-38" style="edgeStyle=none;rounded=0;orthogonalLoop=1;jettySize=auto;html=1;entryX=0;entryY=0.5;entryDx=0;entryDy=0;endArrow=none;endFill=0;startArrow=diamondThin;startFill=0;exitX=1;exitY=0.5;exitDx=0;exitDy=0;" edge="1" parent="yz_Uevt21Vtl2zDWMF5E-1" source="yz_Uevt21Vtl2zDWMF5E-40" target="yz_Uevt21Vtl2zDWMF5E-42">
          <mxGeometry relative="1" as="geometry" />
        </mxCell>
        <mxCell id="yz_Uevt21Vtl2zDWMF5E-40" value="Session" style="rounded=0;whiteSpace=wrap;html=1;strokeColor=#000000;strokeWidth=1;fillColor=none;" vertex="1" parent="yz_Uevt21Vtl2zDWMF5E-1">
          <mxGeometry x="380" y="360" width="80" height="20" as="geometry" />
        </mxCell>
        <mxCell id="yz_Uevt21Vtl2zDWMF5E-41" value="Operation" style="rounded=0;whiteSpace=wrap;html=1;strokeColor=#000000;strokeWidth=1;fillColor=none;" vertex="1" parent="yz_Uevt21Vtl2zDWMF5E-1">
          <mxGeometry x="510" y="390" width="80" height="20" as="geometry" />
        </mxCell>
        <mxCell id="yz_Uevt21Vtl2zDWMF5E-42" value="Operation" style="rounded=0;whiteSpace=wrap;html=1;strokeColor=#000000;strokeWidth=1;fillColor=none;" vertex="1" parent="yz_Uevt21Vtl2zDWMF5E-1">
          <mxGeometry x="510" y="330" width="80" height="20" as="geometry" />
        </mxCell>
        <mxCell id="yz_Uevt21Vtl2zDWMF5E-43" value="Operation" style="rounded=0;whiteSpace=wrap;html=1;strokeColor=#000000;strokeWidth=1;fillColor=none;" vertex="1" parent="yz_Uevt21Vtl2zDWMF5E-1">
          <mxGeometry x="510" y="360" width="80" height="20" as="geometry" />
        </mxCell>
        <mxCell id="yz_Uevt21Vtl2zDWMF5E-44" style="edgeStyle=none;rounded=0;orthogonalLoop=1;jettySize=auto;html=1;entryX=0;entryY=0.5;entryDx=0;entryDy=0;endArrow=none;endFill=0;startArrow=diamondThin;startFill=0;exitX=1;exitY=0.5;exitDx=0;exitDy=0;" edge="1" parent="yz_Uevt21Vtl2zDWMF5E-1" source="yz_Uevt21Vtl2zDWMF5E-40" target="yz_Uevt21Vtl2zDWMF5E-43">
          <mxGeometry relative="1" as="geometry">
            <mxPoint x="470" y="380" as="sourcePoint" />
            <mxPoint x="520" y="350" as="targetPoint" />
          </mxGeometry>
        </mxCell>
        <mxCell id="yz_Uevt21Vtl2zDWMF5E-45" style="edgeStyle=none;rounded=0;orthogonalLoop=1;jettySize=auto;html=1;entryX=0;entryY=0.5;entryDx=0;entryDy=0;endArrow=none;endFill=0;startArrow=diamondThin;startFill=0;" edge="1" parent="yz_Uevt21Vtl2zDWMF5E-1" target="yz_Uevt21Vtl2zDWMF5E-41">
          <mxGeometry relative="1" as="geometry">
            <mxPoint x="460" y="370" as="sourcePoint" />
            <mxPoint x="520" y="380" as="targetPoint" />
          </mxGeometry>
        </mxCell>
        <mxCell id="yz_Uevt21Vtl2zDWMF5E-47" value="" style="endArrow=none;dashed=1;html=1;dashPattern=1 3;strokeWidth=2;entryX=0.5;entryY=1;entryDx=0;entryDy=0;exitX=0.5;exitY=0;exitDx=0;exitDy=0;" edge="1" parent="yz_Uevt21Vtl2zDWMF5E-1" target="yz_Uevt21Vtl2zDWMF5E-41">
          <mxGeometry width="50" height="50" relative="1" as="geometry">
            <mxPoint x="550" y="420" as="sourcePoint" />
            <mxPoint x="530" y="440" as="targetPoint" />
          </mxGeometry>
        </mxCell>
        <mxCell id="yz_Uevt21Vtl2zDWMF5E-48" style="edgeStyle=none;rounded=0;orthogonalLoop=1;jettySize=auto;html=1;entryX=0;entryY=0.5;entryDx=0;entryDy=0;startArrow=diamondThin;startFill=0;endArrow=none;endFill=0;exitX=1;exitY=0.5;exitDx=0;exitDy=0;" edge="1" parent="yz_Uevt21Vtl2zDWMF5E-1" source="yz_Uevt21Vtl2zDWMF5E-51" target="yz_Uevt21Vtl2zDWMF5E-52">
          <mxGeometry relative="1" as="geometry" />
        </mxCell>
        <mxCell id="yz_Uevt21Vtl2zDWMF5E-49" style="edgeStyle=none;rounded=0;orthogonalLoop=1;jettySize=auto;html=1;entryX=0;entryY=0.5;entryDx=0;entryDy=0;startArrow=diamondThin;startFill=0;endArrow=none;endFill=0;" edge="1" parent="yz_Uevt21Vtl2zDWMF5E-1" source="yz_Uevt21Vtl2zDWMF5E-51" target="yz_Uevt21Vtl2zDWMF5E-53">
          <mxGeometry relative="1" as="geometry" />
        </mxCell>
        <mxCell id="yz_Uevt21Vtl2zDWMF5E-50" style="edgeStyle=none;rounded=0;orthogonalLoop=1;jettySize=auto;html=1;entryX=0;entryY=0.5;entryDx=0;entryDy=0;startArrow=diamondThin;startFill=0;endArrow=none;endFill=0;exitX=1;exitY=0.5;exitDx=0;exitDy=0;" edge="1" parent="yz_Uevt21Vtl2zDWMF5E-1" source="yz_Uevt21Vtl2zDWMF5E-51" target="yz_Uevt21Vtl2zDWMF5E-56">
          <mxGeometry relative="1" as="geometry" />
        </mxCell>
        <mxCell id="yz_Uevt21Vtl2zDWMF5E-51" value="Session" style="rounded=0;whiteSpace=wrap;html=1;strokeColor=#000000;strokeWidth=1;fillColor=none;" vertex="1" parent="yz_Uevt21Vtl2zDWMF5E-1">
          <mxGeometry x="380" y="480" width="80" height="20" as="geometry" />
        </mxCell>
        <mxCell id="yz_Uevt21Vtl2zDWMF5E-52" value="Operation" style="rounded=0;whiteSpace=wrap;html=1;strokeColor=#000000;strokeWidth=1;fillColor=none;" vertex="1" parent="yz_Uevt21Vtl2zDWMF5E-1">
          <mxGeometry x="510" y="450" width="80" height="20" as="geometry" />
        </mxCell>
        <mxCell id="yz_Uevt21Vtl2zDWMF5E-53" value="Operation" style="rounded=0;whiteSpace=wrap;html=1;strokeColor=#000000;strokeWidth=1;fillColor=none;" vertex="1" parent="yz_Uevt21Vtl2zDWMF5E-1">
          <mxGeometry x="510" y="480" width="80" height="20" as="geometry" />
        </mxCell>
        <mxCell id="yz_Uevt21Vtl2zDWMF5E-54" value="" style="endArrow=none;dashed=1;html=1;dashPattern=1 3;strokeWidth=2;entryX=0.5;entryY=1;entryDx=0;entryDy=0;" edge="1" parent="yz_Uevt21Vtl2zDWMF5E-1">
          <mxGeometry width="50" height="50" relative="1" as="geometry">
            <mxPoint x="550" y="560" as="sourcePoint" />
            <mxPoint x="550" y="530" as="targetPoint" />
          </mxGeometry>
        </mxCell>
        <mxCell id="yz_Uevt21Vtl2zDWMF5E-55" value="session time out requires return to IdP&lt;br&gt;and potentially re-entry of Pwd" style="endArrow=none;html=1;" edge="1" parent="yz_Uevt21Vtl2zDWMF5E-1">
          <mxGeometry width="50" height="50" relative="1" as="geometry">
            <mxPoint x="380" y="430" as="sourcePoint" />
            <mxPoint x="590" y="430" as="targetPoint" />
          </mxGeometry>
        </mxCell>
        <mxCell id="yz_Uevt21Vtl2zDWMF5E-56" value="Operation" style="rounded=0;whiteSpace=wrap;html=1;strokeColor=#000000;strokeWidth=1;fillColor=none;" vertex="1" parent="yz_Uevt21Vtl2zDWMF5E-1">
          <mxGeometry x="510" y="510" width="80" height="20" as="geometry" />
        </mxCell>
        <mxCell id="_m0U3JX0lQBE-3rODZ9k-0" value="User&amp;nbsp;&lt;br&gt;can have multiple System&lt;br&gt;Sessions (sharing the same&amp;nbsp;&lt;br&gt;IdP Session)&lt;br&gt;" style="shape=image;html=1;verticalAlign=top;verticalLabelPosition=bottom;labelBackgroundColor=#ffffff;imageAspect=0;aspect=fixed;image=https://cdn0.iconfinder.com/data/icons/elasto-online-store/26/00-ELASTOFONT-STORE-READY_user-128.png" vertex="1" parent="yz_Uevt21Vtl2zDWMF5E-1">
          <mxGeometry x="340" y="210" width="40" height="40" as="geometry" />
        </mxCell>
      </root>
    </mxGraphModel>
  </diagram>
</mxfile>
